<svg xmlns="http://www.w3.org/2000/svg" width="64" height="64" viewBox="0 0 64 64" role="img" aria-label="SoundCloud placeholder">
  <defs>
    <linearGradient id="scGradient" x1="0" y1="0" x2="1" y2="1">
      <stop offset="0%" stop-color="#ff7a18"/>
      <stop offset="100%" stop-color="#ff3e00"/>
    </linearGradient>
  </defs>
  <rect width="64" height="64" rx="12" fill="url(#scGradient)"/>
  <g fill="#ffffff" opacity="0.9">
    <path d="M18 36c-2.2 0-4 1.8-4 4s1.8 4 4 4h26c3.3 0 6-2.7 6-6s-2.7-6-6-6c-.6 0-1.2.1-1.8.3C40.9 27.9 37.7 25 33.9 25c-2.3 0-4.5 1.1-5.8 2.8C27.3 27.3 26.2 27 25 27c-3.3 0-6 2.7-6 6 0 .3 0 .7.1 1-0.4.1-0.7 0-1.1 0z"/>
    <rect x="14" y="32" width="2" height="10" rx="1"/>
    <rect x="11" y="33" width="2" height="8" rx="1"/>
    <rect x="8" y="34" width="2" height="6" rx="1"/>
  </g>
</svg>
